Coordinates
version=1
nRows=13
nColumns=36
inDegrees=yes

Units are S.I. units (second, meters, Newtons, ...)
If the header above contains a line with 'inDegrees', this indicates whether rotational values are in degrees (yes) or radians (no).

endheader
time	pelvis_tilt	pelvis_list	pelvis_rotation	pelvis_tx	pelvis_ty	pelvis_tz	hip_flexion_r	hip_adduction_r	hip_rotation_r	knee_angle_r	knee_angle_r_beta	ankle_angle_r	subtalar_angle_r	mtp_angle_r	hip_flexion_l	hip_adduction_l	hip_rotation_l	knee_angle_l	knee_angle_l_beta	ankle_angle_l	subtalar_angle_l	mtp_angle_l	lumbar_extension	lumbar_bending	lumbar_rotation	arm_flex_r	arm_add_r	arm_rot_r	elbow_flex_r	pro_sup_r	arm_flex_l	arm_add_l	arm_rot_l	elbow_flex_l	pro_sup_l
      0.00000000	      2.52260163	     -7.08012402	      3.22450578	      0.88390825	      0.81435636	      0.75045949	      9.34804501	     10.16042345	      1.81143290	     11.29662914	      0.19716337	      0.23064479	    -13.18481373	     -7.32461820	      0.52932825	     -9.37170007	      0.36291853	     59.02042037	      1.03010066	    -12.16133314	    -11.84019893	     -7.32461820	     -6.79848379	      9.08726556	     -6.25183182	     -4.94920616	    -13.73002803	    -15.98946635	     15.24452409	     88.03766480	     13.58876881	     -9.30548361	      7.58749404	     16.13413415	     86.83765769
      0.01666670	      3.07448466	     -6.86324728	      2.81226923	      0.88212935	      0.81394956	      0.75273353	      6.99428394	     10.32602570	      1.93118792	     10.16045816	      0.17733345	      0.40729547	    -14.10147703	     -7.37412276	      2.84394751	     -8.93321040	      0.29279008	     61.69073789	      1.07670649	    -11.77343136	    -13.32892396	     -7.37412276	     -6.88060632	      8.62762239	     -5.23462395	     -3.82613278	    -14.13149727	    -16.12835933	     13.44602502	     92.07912832	     13.78749076	     -9.28751290	      7.67565959	     14.98542320	     89.42961856
      0.03333330	      3.33742709	     -6.04592848	      2.73532007	      0.88160003	      0.81491754	      0.75543524	      5.02105455	      9.75728393	      2.12543636	      9.85120866	      0.17193603	      1.71428731	    -14.19103863	     -7.37704552	      5.23859885	     -7.41876505	      0.42955797	     62.51728130	      1.09113240	     -7.75320824	    -15.91097618	     -7.37704552	     -7.04807749	      7.82227427	     -4.54672506	     -3.30474395	    -14.21569270	    -16.15677232	     14.12275221	     91.73650595	     13.24450356	     -9.72153015	      7.60897381	     15.13913160	     89.08232754
      0.05000000	      4.68511014	     -4.99863331	      2.87220849	      0.88013771	      0.81666285	      0.75744890	      1.56514550	      8.96906043	      2.33157883	      9.01248097	      0.15729747	      3.66670187	    -13.76978302	     -7.37967753	      6.69322972	     -6.04258994	      0.16700758	     62.28716332	      1.08711608	     -3.64383427	    -17.62593583	     -7.37967753	     -9.01520031	      6.75795957	     -3.85181186	     -1.74471033	    -13.99868013	    -15.81973726	     14.34481704	     92.34302553	     13.22200260	    -10.07029995	      7.93634827	     14.34360525	     89.59957114
      0.06666670	      5.40957682	     -4.01171313	      2.96679988	      0.87764897	      0.81756439	      0.75876339	     -1.33713921	      8.14317503	      2.09681111	      7.92720289	      0.13835579	      5.70921167	    -12.46034677	     -7.40648225	      9.08787900	     -4.87704543	      0.10331441	     61.59623295	      1.07505707	     -0.94961473	    -18.95901576	     -7.40648225	    -10.33802235	      5.69787568	     -2.77516579	     -0.80176653	    -13.84979813	    -13.02905874	     15.23498669	     93.23772160	     12.97754754	    -10.45572173	     10.68222860	     13.78665355	     90.87363867
      0.08333330	      6.06532568	     -3.25180413	      2.96678131	      0.87422655	      0.81864531	      0.75932812	     -4.21826641	      7.48900178	      1.73599552	      6.69206555	      0.11679858	      7.57345582	    -10.72907072	     -7.41665435	     11.64540724	     -4.10856971	     -0.00058185	     60.27232638	      1.05195054	      0.71592591	    -19.13795659	     -7.41665435	    -11.65175334	      4.83479205	     -1.71881763	      0.44480271	    -13.59201710	    -11.35703570	     15.87811041	     91.23193833	     12.52737619	    -10.59134633	     11.31316827	     13.02619725	     89.23211921
      0.10000000	      6.42763957	     -2.55235094	      2.89967088	      0.86993534	      0.81923064	      0.75905935	     -6.77728384	      6.87541114	      1.79962185	      5.39504377	      0.09416128	      8.36580895	    -10.08083724	     -7.43373761	     14.14666592	     -3.45091604	     -0.30023421	     57.85895024	      1.00982918	      1.46697979	    -18.79981961	     -7.43373761	    -12.50285791	      3.95774362	     -0.92536582	      1.64410897	    -13.52507113	     -8.85615996	     16.81799867	     91.49876894	     12.02279205	    -10.90925988	     12.92113491	     12.01468003	     90.75593972
      0.11666670	      6.58226974	     -2.06207231	      2.65767411	      0.86354818	      0.81886964	      0.75769969	     -8.89076266	      6.40261323	      1.61553245	      4.29577868	      0.07497548	      9.25356485	     -8.86505426	     -7.43318289	     16.40680473	     -2.97201252	     -0.89870676	     54.52400769	      0.95162346	      1.91653075	    -18.34653211	     -7.43318289	    -13.30872734	      3.38126504	     -0.21158883	      3.21210422	    -13.49982874	     -8.64447016	     18.06927017	     90.02228562	     11.33232551	    -11.11529387	     12.77797396	     11.54823487	     89.41580818
      0.13333330	      6.32633458	     -1.57101555	      2.35242551	      0.85603017	      0.81708539	      0.75555062	    -10.26698349	      5.90909141	      1.09900455	      3.54332305	      0.06184265	     10.19329093	     -7.92347630	     -7.44433970	     18.67427402	     -2.41222261	     -1.66612365	     50.44947911	      0.88050952	      2.62948571	    -17.02833566	     -7.44433970	    -13.47884684	      2.64723147	      1.28862391	      4.47135358	    -13.99829045	     -7.08071070	     18.86744911	     89.87730713	     11.44481790	    -10.94997509	     12.84897649	     10.04347236	     90.11894525
      0.15000000	      5.87870331	     -1.25729344	      1.85897790	      0.84891140	      0.81383617	      0.75279339	    -11.25231602	      5.58012974	      0.66456067	      3.07391006	      0.05364985	     11.45775347	     -7.10836919	     -7.45302671	     20.80275277	     -1.89684043	     -2.33855611	     45.68088986	      0.79728193	      3.18155746	    -15.88279928	     -7.45302671	    -13.56388492	      2.25114053	      2.43143896	      6.30942504	    -14.67614496	     -5.97941733	     20.07955845	     88.44186703	     10.97827301	    -10.90272260	     12.05023172	      9.38138920	     89.81433838
      0.16666670	      5.47719713	     -0.95763347	      1.29111395	      0.84314754	      0.81044584	      0.75004078	    -12.33773757	      5.27369063	      0.56799587	      2.72077047	      0.04748640	     12.41175447	     -6.85905420	     -7.45210734	     22.47463621	     -1.21255275	     -2.61174789	     39.86111045	      0.69570762	      3.23420201	    -15.25946316	     -7.45210734	    -13.91333770	      1.95602415	      3.37976276	      8.24324165	    -15.33894842	     -5.70974087	     22.28329392	     85.53815623	     10.03797884	    -11.00585321	     11.20321274	      9.87712464	     87.05610625
      0.18333330	      4.52709505	     -1.01987246	      0.73368571	      0.83923292	      0.80723444	      0.74778241	    -12.84587536	      5.32211031	      0.38213411	      2.69846711	      0.04709714	     12.94589435	     -6.13074189	     -7.45390359	     24.42861404	     -0.85968896	     -2.48636803	     33.14874964	      0.57855482	      4.14872350	    -13.23236606	     -7.45390359	    -13.37985746	      2.09972458	      4.76712635	     10.17082975	    -16.50013735	     -3.77207813	     23.41187459	     85.36907211	      9.57944799	    -10.65715402	      9.62271375	      9.08188577	     87.70309170
      0.20000000	      3.53745593	     -1.08003321	      0.37886803	      0.83661961	      0.80442091	      0.74600144	    -13.39294425	      5.37045544	      0.45499408	      2.73699240	      0.04776953	     12.70156536	     -5.95400289	     -7.45174012	     25.86545609	     -0.40575011	     -1.61833598	     25.23902729	      0.44050413	      4.79776814	    -11.04658777	     -7.45174012	    -12.86356876	      2.30754410	      5.78058794	     12.15727831	    -17.35179017	     -3.34693167	     24.72666508	     84.74002531	      8.68125557	    -10.57051759	      8.92700194	      9.41088811	     87.29985849
